<?xml version="1.0" encoding="UTF-8" standalone="no"?>
<!-- Created with Inkscape (http://www.inkscape.org/) -->

<svg
   width="512"
   height="512"
   viewBox="0 0 512 512"
   version="1.1"
   id="svg1"
   sodipodi:docname="spiderlink.svg"
   inkscape:version="1.3 (0e150ed6c4, 2023-07-21)"
   xmlns:inkscape="http://www.inkscape.org/namespaces/inkscape"
   xmlns:sodipodi="http://sodipodi.sourceforge.net/DTD/sodipodi-0.dtd"
   xmlns="http://www.w3.org/2000/svg"
   xmlns:svg="http://www.w3.org/2000/svg">
  <sodipodi:namedview
     id="namedview1"
     pagecolor="#636363"
     bordercolor="#000000"
     borderopacity="0.25"
     inkscape:showpageshadow="2"
     inkscape:pageopacity="0.0"
     inkscape:pagecheckerboard="true"
     inkscape:deskcolor="#151515"
     inkscape:document-units="px"
     borderlayer="true"
     labelstyle="default"
     inkscape:zoom="1.4627806"
     inkscape:cx="51.272215"
     inkscape:cy="298.40429"
     inkscape:window-width="2560"
     inkscape:window-height="1377"
     inkscape:window-x="1072"
     inkscape:window-y="270"
     inkscape:window-maximized="1"
     inkscape:current-layer="text1" />
  <defs
     id="defs1" />
  <g
     inkscape:label="Layer 1"
     inkscape:groupmode="layer"
     id="layer1">
    <g
       id="text1"
       transform="translate(-8.887184,81.351914)">
      <path
         style="color:#000000;-inkscape-font-specification:'Hobo Std, Normal';fill:#000000;stroke-width:2.27764;-inkscape-stroke:none"
         d="m 72.142042,322.60904 c 27.113034,0 49.415688,-20.99073 49.415688,-48.10377 0,-27.11303 -22.302654,-48.10377 -49.852995,-48.10377 -26.23842,0 -48.103769,21.42805 -48.103769,47.66647 0,26.67572 21.428042,48.54107 48.541076,48.54107 z m 0,-196.78814 c 27.113034,0 49.415688,-20.99074 49.415688,-48.103774 0,-27.113033 -22.302654,-48.103769 -49.852995,-48.103769 -26.23842,0 -48.103769,21.428043 -48.103769,47.666462 0,26.675731 21.428042,48.541081 48.541076,48.541081 z M 452.60033,322.60904 c 27.11304,0 49.41569,-20.99073 49.41569,-48.10377 0,-27.11303 -22.30265,-48.10377 -49.85299,-48.10377 -26.23842,0 -48.10377,21.42805 -48.10377,47.66647 0,26.67572 21.42804,48.54107 48.54107,48.54107 z m 0,-196.78814 c 27.11304,0 49.41569,-20.99074 49.41569,-48.103774 0,-27.113033 -22.30265,-48.103769 -49.85299,-48.103769 -26.23842,0 -48.10377,21.428043 -48.10377,47.666462 0,26.675731 21.42804,48.541081 48.54107,48.541081 z"
         id="path4" />
    </g>
    <path
       style="color:#000000;fill:#000000;stroke-width:2.27764;-inkscape-stroke:none"
       d="m 214.10278,213.88758 c -23.46152,0 -39.73718,15.01587 -51.65172,27.37173 -11.91457,12.35583 -19.72918,24.59583 -19.72918,24.59583 l 30.65472,19.70694 c 0,0 6.20159,-9.56105 15.30737,-19.00406 9.10575,-9.44303 20.85323,-16.22819 25.41881,-16.22819 12.44685,0 25.53453,7.2959 40.27242,17.16236 14.7379,9.86647 30.36874,23.32359 53.15532,23.32359 26.75171,0 44.84196,-17.71606 53.13754,-32.79891 8.29558,-15.08288 10.07589,-29.72499 10.07589,-29.72499 l -36.12196,-4.81776 c 0,0 -1.3352,8.71141 -5.88538,16.98444 -4.55018,8.27305 -9.03126,13.91497 -21.20609,13.91497 -5.24007,0 -17.38543,-6.78705 -32.88343,-17.16239 -15.498,-10.37531 -35.11412,-23.32356 -60.54431,-23.32356 z"
       id="path3" />
  </g>
</svg>
